<svg width="131" height="43" viewBox="0 0 131 43" fill="none" xmlns="http://www.w3.org/2000/svg">
<path d="M60.22 29L65.36 14.1H68.88L74.02 29H71.06L70 25.8H64.24L63.16 29H60.22ZM65.02 23.4H69.22L66.74 15.98H67.5L65.02 23.4ZM75.4583 33V18.12H77.9183V20.28L77.6783 19.74C78.0516 19.1533 78.5583 18.7 79.1983 18.38C79.8383 18.0467 80.5783 17.88 81.4183 17.88C82.4449 17.88 83.3716 18.1333 84.1983 18.64C85.0249 19.1467 85.6783 19.8267 86.1583 20.68C86.6516 21.5333 86.8983 22.4933 86.8983 23.56C86.8983 24.6133 86.6583 25.5733 86.1783 26.44C85.6983 27.3067 85.0449 27.9933 84.2183 28.5C83.3916 28.9933 82.4516 29.24 81.3983 29.24C80.6116 29.24 79.8849 29.0867 79.2183 28.78C78.5649 28.46 78.0449 28.0067 77.6583 27.42L78.0783 26.9V33H75.4583ZM81.0983 26.84C81.6983 26.84 82.2316 26.7 82.6983 26.42C83.1649 26.14 83.5249 25.7533 83.7783 25.26C84.0449 24.7667 84.1783 24.2 84.1783 23.56C84.1783 22.92 84.0449 22.36 83.7783 21.88C83.5249 21.3867 83.1649 21 82.6983 20.72C82.2316 20.4267 81.6983 20.28 81.0983 20.28C80.5249 20.28 80.0049 20.42 79.5383 20.7C79.0849 20.98 78.7249 21.3733 78.4583 21.88C78.2049 22.3733 78.0783 22.9333 78.0783 23.56C78.0783 24.2 78.2049 24.7667 78.4583 25.26C78.7249 25.7533 79.0849 26.14 79.5383 26.42C80.0049 26.7 80.5249 26.84 81.0983 26.84ZM88.8958 33V18.12H91.3558V20.28L91.1158 19.74C91.4891 19.1533 91.9958 18.7 92.6358 18.38C93.2758 18.0467 94.0158 17.88 94.8558 17.88C95.8824 17.88 96.8091 18.1333 97.6358 18.64C98.4624 19.1467 99.1158 19.8267 99.5958 20.68C100.089 21.5333 100.336 22.4933 100.336 23.56C100.336 24.6133 100.096 25.5733 99.6158 26.44C99.1358 27.3067 98.4824 27.9933 97.6558 28.5C96.8291 28.9933 95.8891 29.24 94.8358 29.24C94.0491 29.24 93.3224 29.0867 92.6558 28.78C92.0024 28.46 91.4824 28.0067 91.0958 27.42L91.5158 26.9V33H88.8958ZM94.5358 26.84C95.1358 26.84 95.6691 26.7 96.1358 26.42C96.6024 26.14 96.9624 25.7533 97.2158 25.26C97.4824 24.7667 97.6158 24.2 97.6158 23.56C97.6158 22.92 97.4824 22.36 97.2158 21.88C96.9624 21.3867 96.6024 21 96.1358 20.72C95.6691 20.4267 95.1358 20.28 94.5358 20.28C93.9624 20.28 93.4424 20.42 92.9758 20.7C92.5224 20.98 92.1624 21.3733 91.8958 21.88C91.6424 22.3733 91.5158 22.9333 91.5158 23.56C91.5158 24.2 91.6424 24.7667 91.8958 25.26C92.1624 25.7533 92.5224 26.14 92.9758 26.42C93.4424 26.7 93.9624 26.84 94.5358 26.84ZM102.553 29V14.1H108.833C109.82 14.1 110.66 14.2733 111.353 14.62C112.06 14.9533 112.6 15.4333 112.973 16.06C113.36 16.6733 113.553 17.42 113.553 18.3C113.553 18.98 113.367 19.62 112.993 20.22C112.633 20.8067 112.053 21.2933 111.253 21.68V20.42C111.987 20.7 112.567 21.0467 112.993 21.46C113.42 21.8733 113.72 22.3333 113.893 22.84C114.067 23.3467 114.153 23.88 114.153 24.44C114.153 25.8667 113.68 26.9867 112.733 27.8C111.8 28.6 110.5 29 108.833 29H102.553ZM105.273 26.6H109.113C109.82 26.6 110.38 26.4067 110.793 26.02C111.22 25.62 111.433 25.0933 111.433 24.44C111.433 23.7867 111.22 23.26 110.793 22.86C110.38 22.46 109.82 22.26 109.113 22.26H105.273V26.6ZM105.273 19.88H108.973C109.533 19.88 109.98 19.72 110.313 19.4C110.647 19.0667 110.813 18.64 110.813 18.12C110.813 17.6 110.647 17.1867 110.313 16.88C109.98 16.5733 109.533 16.42 108.973 16.42H105.273V19.88ZM116.161 29V18.12H118.781V29H116.161ZM116.161 16.9V14.1H118.781V16.9H116.161ZM124.06 29V16.5H120.2V14.1H130.6V16.5H126.8V29H124.06Z" fill="#1C1C1E" fill-opacity="0.8"/>
<path d="M25.8001 33.1C22.3001 31.8 18.7001 31.6 15.4001 32.5C13.1001 33.1 10.9001 34.3 8.90012 35.8L7.50009 37L7.1001 37.4L8.00009 38.2C8.10009 38.2 8.1001 38.3 8.2001 38.4C8.4001 38.6 8.60012 38.7 8.90012 38.9L9.50009 39.3L10.1001 38.8C10.2001 38.7 10.4001 38.5 10.6001 38.4C12.4001 36.9 14.4001 35.9 16.5001 35.4C19.2001 34.7 22.1001 34.8 25.0001 35.9C27.4001 36.8 32.3001 37.9 38.2001 35.4L38.4001 35.3L38.7001 35C38.7001 34.9 38.8001 34.9 38.9001 34.8C39.4001 34.2 39.9001 33.6 40.3001 32.9L42.3001 29.8L39.1001 31.6C34.4001 34.2 30.1001 34.7 25.8001 33.1Z" fill="url(#paint0_linear_17_953)"/>
<path d="M12.1 22.3C14.8 21.6 17.7 21.7 20.6 22.8C23.8 24 32 25.7 41.2 17.4L42.7 15.9L42.8 15.8L43.2 15.4L43 14.9C42.9 14.5 42.7 14 42.5 13.5L42 12.1L41 13.1C40.9 13.3 40.7 13.4 40.5 13.6C36.1 18.1 29.3 22.7 21.5 19.9C18 18.6 14.4 18.4 11.1 19.3C7.90001 20.2 5.1 21.9 2.5 24.3V24.2L1 25.8C1 25.9 0.900018 25.9 0.800018 26L0.5 26.3L0.600006 26.7C0.700006 27.2 0.9 27.7 1 28.2L1.60001 29.8L2.60001 28.5C2.70001 28.3 2.9 28.2 3 28C5.1 26.1 8.00001 23.4 12.1 22.3Z" fill="url(#paint1_linear_17_953)"/>
<path d="M2.40002 20.5C4.70002 18.1 7.30001 16.6 10.1 15.8C12.8 15.1 15.7 15.2 18.6 16.3C27.6 19.6 35.4 14.2 38.8 11.3L40.1 10L40.6 9.59998L40.2 9C39.9 8.7 39.7 8.29999 39.4 7.89999L38.8 7.09998L38.1 7.79999C38 7.89999 37.8 8.09998 37.7 8.19998C33.5 12.2 27 16.3 19.6 13.5C16.1 12.2 12.5 12 9.20001 12.9C7.10001 13.5 5.10001 14.5 3.10001 15.8L1 17.5C0.8 17.7 0.7 17.8 0.5 18L0.300018 18.2V18.5C0.200018 19.2 0.200006 19.9 0.100006 20.5L0 23L1.70001 21.2C1.90001 21 2.10002 20.7 2.40002 20.5Z" fill="url(#paint2_linear_17_953)"/>
<path d="M28.6999 39.9L28.4999 40.5L28.6999 39.9C28.3999 39.8 28.1999 39.7 27.8999 39.6C24.3999 38.3 20.7999 38.1 17.4999 39C16.7999 39.2 16.0999 39.4 15.3999 39.7L12.9999 40.8L12.3999 41.1L14.3999 41.8C14.9999 42 15.5999 42.2 16.1999 42.4L16.4999 42.5L16.7999 42.4C17.0999 42.3 17.3999 42.1 17.6999 42.1C17.8999 42.1 18.0999 42 18.2999 41.9C20.6999 41.3 23.2999 41.3 26.0999 42.2C26.3999 42.3 26.5999 42.4 26.8999 42.5L27.3999 42.7L27.6999 42.6C28.3999 42.4 29.1999 42.2 29.7999 41.9L32.5999 40.9L29.6999 40.2C29.3999 40.1 28.9999 40 28.6999 39.9Z" fill="url(#paint3_linear_17_953)"/>
<path d="M43.9998 19.2L42.4998 20.7C42.2998 20.9 42.0998 21.1 41.8998 21.3C37.7998 25.2 31.1998 29.4 23.7998 26.6C20.2998 25.3 16.6998 25.1 13.3998 26C10.2998 26.9 7.49979 28.5 4.99979 30.9L3.6998 32.3L3.2998 32.8L3.6998 33.4C3.9998 33.8 4.19981 34.1 4.39981 34.5L4.99979 35.4L5.6998 34.5C5.7998 34.4 5.99979 34.2 6.09979 34.1C8.49979 31.5 11.0998 29.9 14.0998 29.1C16.7998 28.4 19.6998 28.5 22.5998 29.6C25.0998 30.5 27.6998 30.8 30.2998 30.5C34.8998 30 39.4998 27.4 42.8998 24.5C43.0998 24.3 43.2998 24.2 43.4998 24L43.7998 23.7V23.4C43.7998 22.8 43.8998 22.1 43.8998 21.5L43.9998 19.2Z" fill="url(#paint4_linear_17_953)"/>
<path d="M6.00018 10L5.7002 9.39999L6.00018 10C6.60018 9.7 7.30021 9.49999 7.90021 9.29999C10.6002 8.59999 13.5002 8.69999 16.4002 9.79999C18.3002 10.5 20.2002 10.8 22.3002 10.8C26.5002 10.8 30.7002 9.29999 34.6002 6.39999L36.1002 5.19998L36.6002 4.79999L35.7002 4.09998C35.4002 3.79998 35.0002 3.49999 34.6002 3.29999L34.0002 2.89999L33.5002 3.29999C33.3002 3.39999 33.2002 3.59998 33.0002 3.69998C27.7002 7.69998 22.4002 8.79999 17.4002 6.89999C13.8002 5.59999 10.2002 5.29999 6.60019 6.39999C6.30019 6.49999 6.00019 6.59998 5.60019 6.69998L5.40021 6.79999L5.10019 7.09998C5.10019 7.19998 5.00021 7.19999 4.90021 7.29999C4.50021 7.89999 4.00019 8.4 3.60019 9L1.7002 11.9L4.8002 10.3C5.3002 10.3 5.70018 10.1 6.00018 10Z" fill="url(#paint5_linear_17_953)"/>
<path d="M14.2 3.19998L14.5 3.29999C15.8 3.79999 17.8 4.29999 20.3 4.29999C22.9 4.29999 25.4 3.69998 27.9 2.69998L31 1.19998L28.9 0.5C28.3 0.3 27.7 0.1 27 0H26.7L26.4 0.0999756C26.1 0.199976 25.8 0.4 25.5 0.5C22.5 1.6 19.5 1.8 16.6 1C16.3 0.9 16 0.799982 15.7 0.699982L15.4 0.599976L15.1 0.699982C14.5 0.899982 13.9 1.09999 13.3 1.39999L11 2.39999L13.4 3.09998C13.6 2.99998 13.9 3.09998 14.2 3.19998Z" fill="url(#paint6_linear_17_953)"/>
<defs>
<linearGradient id="paint0_linear_17_953" x1="24.7001" y1="29.8" x2="24.7001" y2="39.3" gradientUnits="userSpaceOnUse">
<stop offset="0.677885" stop-color="#1C1C1E" stop-opacity="0.6"/>
<stop offset="1" stop-color="#3D3D3D" stop-opacity="0"/>
</linearGradient>
<linearGradient id="paint1_linear_17_953" x1="21.85" y1="12.1" x2="21.85" y2="29.8" gradientUnits="userSpaceOnUse">
<stop offset="0.677885" stop-color="#1C1C1E" stop-opacity="0.6"/>
<stop offset="1" stop-color="#3D3D3D" stop-opacity="0"/>
</linearGradient>
<linearGradient id="paint2_linear_17_953" x1="20.3" y1="7.09998" x2="20.3" y2="23" gradientUnits="userSpaceOnUse">
<stop offset="0.677885" stop-color="#1C1C1E" stop-opacity="0.6"/>
<stop offset="1" stop-color="#3D3D3D" stop-opacity="0"/>
</linearGradient>
<linearGradient id="paint3_linear_17_953" x1="22.4999" y1="38.4477" x2="22.4999" y2="42.7" gradientUnits="userSpaceOnUse">
<stop offset="0.677885" stop-color="#1C1C1E" stop-opacity="0.6"/>
<stop offset="1" stop-color="#3D3D3D" stop-opacity="0"/>
</linearGradient>
<linearGradient id="paint4_linear_17_953" x1="23.6498" y1="19.2" x2="23.6498" y2="35.4" gradientUnits="userSpaceOnUse">
<stop offset="0.677885" stop-color="#1C1C1E" stop-opacity="0.6"/>
<stop offset="1" stop-color="#3D3D3D" stop-opacity="0"/>
</linearGradient>
<linearGradient id="paint5_linear_17_953" x1="19.1502" y1="2.89999" x2="19.1502" y2="11.9" gradientUnits="userSpaceOnUse">
<stop offset="0.677885" stop-color="#1C1C1E" stop-opacity="0.6"/>
<stop offset="1" stop-color="#3D3D3D" stop-opacity="0"/>
</linearGradient>
<linearGradient id="paint6_linear_17_953" x1="21" y1="0" x2="21" y2="4.29999" gradientUnits="userSpaceOnUse">
<stop offset="0.677885" stop-color="#1C1C1E" stop-opacity="0.6"/>
<stop offset="1" stop-color="#3D3D3D" stop-opacity="0"/>
</linearGradient>
</defs>
</svg>
